<?xml version="1.0" encoding="UTF-8"?>
<svg xmlns="http://www.w3.org/2000/svg" xmlns:xlink="http://www.w3.org/1999/xlink" width="32pt" height="32pt" viewBox="0 0 32 32" version="1.1">
<g id="surface1">
<path style=" stroke:none;fill-rule:evenodd;fill:rgb(98.039216%,65.098039%,14.509804%);fill-opacity:1;" d="M 11.988281 17.25 L 15.832031 17.25 C 15.171875 15 14.519531 12.921875 13.878906 10.804688 C 13.253906 12.925781 12.625 15 11.988281 17.25 Z M 31.027344 0.25 L 0.71875 0.25 C 0.171875 0.25 0.25 0.367188 0.25 0.894531 L 0.25 31.246094 C 0.25 31.773438 0.171875 31.75 0.679688 31.75 L 31.066406 31.75 C 31.574219 31.75 31.75 31.773438 31.75 31.246094 L 31.75 0.933594 C 31.75 0.367188 31.574219 0.25 31.027344 0.25 Z M 19.324219 24 C 18.914062 24 18.503906 23.964844 18.097656 23.996094 C 17.804688 24.019531 17.707031 23.894531 17.628906 23.640625 C 17.25 22.40625 16.847656 21.175781 16.46875 19.941406 C 16.390625 19.695312 16.28125 19.601562 16.011719 19.605469 C 14.632812 19.621094 13.25 19.621094 11.871094 19.605469 C 11.578125 19.601562 11.445312 19.679688 11.363281 19.96875 C 11.011719 21.195312 10.625 22.410156 10.273438 23.632812 C 10.195312 23.898438 10.078125 23.992188 9.796875 23.984375 C 8.964844 23.964844 8.136719 23.976562 7.226562 23.976562 C 7.464844 23.214844 7.683594 22.511719 7.910156 21.8125 C 9.289062 17.511719 10.671875 13.210938 12.039062 8.910156 C 12.136719 8.609375 12.269531 8.515625 12.574219 8.523438 C 13.546875 8.542969 14.519531 8.527344 15.492188 8.523438 C 15.671875 8.523438 15.796875 8.53125 15.863281 8.738281 C 17.488281 13.769531 19.121094 18.828125 20.753906 23.855469 C 20.757812 23.878906 20.753906 24 20.757812 24 Z M 24.5 24 L 21.5 24 L 21.5 12.75 L 24.5 12.75 Z M 22.914062 11.230469 C 21.996094 11.230469 21.339844 10.601562 21.335938 9.714844 C 21.328125 8.832031 22.011719 8.175781 22.933594 8.175781 C 23.867188 8.171875 24.523438 8.808594 24.53125 9.714844 C 24.539062 10.601562 23.863281 11.234375 22.914062 11.230469 Z M 22.914062 11.230469 "/>
</g>
</svg>
