<?xml version="1.0" encoding="UTF-8"?>
<svg width="65px" height="32px" viewBox="0 0 65 32" version="1.1" xmlns="http://www.w3.org/2000/svg" xmlns:xlink="http://www.w3.org/1999/xlink">
    <!-- Generator: Sketch 43.1 (39012) - http://www.bohemiancoding.com/sketch -->
    <title>phaser4</title>
    <desc>Created with Sketch.</desc>
    <defs></defs>
    <g id="Page-1" stroke="none" stroke-width="1" fill="none" fill-rule="evenodd">
        <g id="phaser">
            <polygon id="Shape" fill="#FFFFFF" fill-rule="nonzero" points="55.585039 26.8392727 55.5953247 27.3137727 56.9351688 26.8392727"></polygon>
            <path d="" id="Shape" stroke="#FFFFFF" stroke-width="0.05"></path>
            <path d="M64.0595325,11.3700779 L63.9921039,11.3025455 C61.7073247,8.7841039 59.2874805,6.67584416 56.7273766,4.97257143 L56.4003117,4.7492987 L56.2393766,5.60612987 C53.3885714,4.27677922 50.542961,3.13963636 47.6920519,2.1892987 L47.6816623,2.1892987 C47.6660779,2.1841039 47.6452987,2.17890909 47.6297143,2.17890909 C47.6245195,2.17371429 47.6245195,2.17371429 47.6193247,2.17371429 C42.8887273,1.06763636 38.1633247,0.371844156 33.4327273,0.0966233766 L33.1628052,0.081038961 L33.0537143,5.39314286 C33.0537143,5.40872727 33.0537143,5.41911688 33.0589091,5.4347013 L33.7495065,10.4353247 L35.3904416,11.4530909 L33.3237403,11.4271169 L28.1673766,0.641766234 L21.7751688,1.68550649 L20.9288312,5.55407792 L18.9918961,2.30857143 C18.9607273,2.25142857 18.913974,2.21516883 18.8568312,2.19428571 C18.7996883,2.17350649 18.7374545,2.17350649 18.6803117,2.19428571 C16.6291948,2.94722078 14.6040519,3.84041558 12.6047792,4.88415584 C12.5995844,4.88415584 12.5995844,4.88415584 12.5943896,4.88935065 L12.5891948,4.88935065 C11.0573506,5.68903896 9.54109091,6.57174026 8.04041558,7.53766234 L8.03002597,7.54285714 L8.02483117,7.54805195 C5.37142857,9.25142857 2.76467532,11.2247273 0.20987013,13.4627532 L0.131948052,13.5302857 L0.121558442,13.6392727 C-0.174441558,17.7778701 0.407168831,21.9164675 1.8558961,26.0551688 C1.87148052,26.0915325 1.89225974,26.1277922 1.92862338,26.158961 C1.95979221,26.1849351 1.99615584,26.2057143 2.03771429,26.2212987 L8.57537662,27.8674286 L11.0678442,25.0996364 C11.0938182,25.0632727 11.1145974,25.027013 11.1301818,24.9854545 C11.1405714,24.9438961 11.1405714,24.9023377 11.1301818,24.8607792 L10.5485714,22.6175584 L14.3651948,24.9438961 L18.187013,23.9572987 L18.1974026,23.9521039 L21.8998442,22.9914805 L26.4434286,22.2749091 C26.4953766,22.2644156 26.5421299,22.2437403 26.5783896,22.2073766 C26.6147532,22.171013 26.6407273,22.1295584 26.6563117,22.0828052 L28.0894545,16.5317403 L29.5018182,21.1324675 L33.2094545,20.2185974 L33.2094545,20.7067013 L43.5376623,21.2363636 L51.4722078,22.7526234 C51.4876883,22.7579221 51.5085714,22.7579221 51.5241558,22.7631169 L54.5566753,23.3395325 L55.4135065,22.3216623 L55.8288831,26.6628571 L58.7783896,26.4446753 C58.793974,26.4446753 58.8148571,26.4394805 58.8355325,26.4342857 L62.7404675,25.2658701 L61.6967273,18.64 L63.3948052,17.2846753 C63.4362597,17.2483117 63.4675325,17.2068571 63.4831169,17.1497143 C63.9504416,15.3270649 64.1426494,13.4316883 64.0595325,11.4635844 L64.0595325,11.3700779 L64.0595325,11.3700779 Z M63.0002078,16.9366234 L62.8496623,17.056 L61.6034286,18.0478961 L61.3126234,16.2459221 L60.7414026,15.9291429 L61.1620779,18.5566753 L61.1620779,18.5774545 L62.1590649,24.897039 L58.8927792,25.8732468 L58.7110649,25.9303896 L58.5812987,25.9408831 L56.3017143,26.107013 L55.881039,21.7659221 L58.0308571,19.2267013 L58.3163636,18.8892468 L58.3371429,18.8632727 C58.3475325,18.8476883 58.3579221,18.8372987 58.3683117,18.8217143 L57.875013,18.6036364 L57.7347532,18.774961 L55.4136104,21.5167792 L55.4084156,21.521974 L54.3542857,22.7734026 L51.9604156,22.3164675 L54.348987,18.1364156 L54.3854545,18.0688831 C54.3958442,18.043013 54.4061299,18.017039 54.4113247,17.9910649 L54.4113247,17.9858701 L54.4425974,17.8352208 L55.153974,14.0913247 C55.1591688,14.0809351 55.1591688,14.0705455 55.1644675,14.0601558 C55.1696623,14.0393766 55.1696623,14.0185974 55.1696623,13.9978182 L56.6859221,6.03220779 L56.6859221,6.02701299 C56.6859221,6.02181818 56.6859221,6.01662338 56.6911169,6.01142857 L56.7638442,5.62192208 C59.1472208,7.24727273 61.4061299,9.23085714 63.5454545,11.577974 C63.612987,13.3798442 63.4416623,15.1193766 63.0313766,16.8018701 C63.020987,16.8484156 63.0107013,16.889974 63.0002078,16.9366234 L63.0002078,16.9366234 Z M18.6596364,2.75532468 L18.8725195,3.11885714 L20.7678961,6.29683117 L18.9452468,14.683013 L18.721974,15.7215584 L18.0937143,18.5983377 L18.0885195,18.6243117 C18.0833247,18.6606753 18.0833247,18.7021299 18.0937143,18.7436883 C18.0937143,18.7488831 18.0937143,18.7591688 18.0989091,18.7643636 C18.1092987,18.7903377 18.1248831,18.8215065 18.1456623,18.8474805 L18.1924156,18.8994286 L21.3755844,22.5914805 L18.1872208,23.417039 L14.4121558,20.2338701 L14.2408312,20.0885195 L14.246026,20.1924156 C14.2512208,20.2598442 14.2304416,20.3221818 14.1836883,20.3793247 C14.1369351,20.4364675 14.0797922,20.4676364 14.0071688,20.4728312 C13.9396364,20.478026 13.8772987,20.4572468 13.8202597,20.4103896 L13.8462338,20.4363636 L17.5746494,23.577974 L14.4486234,24.3880519 L10.2684675,21.8436364 L10.2632727,21.8384416 L10.2580779,21.8384416 L10.1178182,21.7501299 L9.86337662,21.5942857 C9.85818182,21.5683117 9.84779221,21.5424416 9.8425974,21.5164675 C9.75948052,21.126961 9.68166234,20.7375584 9.60374026,20.3584416 L9.59854545,20.3479481 C9.59854545,20.3427532 9.59854545,20.3375584 9.59335065,20.3324675 L9.59335065,20.321974 C9.30254545,18.8836364 9.06888312,17.4607792 8.88716883,16.0536104 C8.52883117,13.291013 8.37828571,10.5752727 8.43023377,7.90618182 C9.76477922,7.04935065 11.1097143,6.26005195 12.4753247,5.53828571 L12.6622338,10.0508052 L13.1815065,9.85350649 L12.9838961,5.27376623 C14.8273247,4.31833766 16.6915325,3.48748052 18.5869091,2.78649351 C18.6076883,2.7761039 18.6336623,2.76571429 18.6596364,2.75532468 L18.6596364,2.75532468 Z M0.635636364,13.7794286 C3.01392208,11.7023377 5.43885714,9.85890909 7.90545455,8.24405195 C7.86909091,10.8092468 8.02493506,13.416 8.36238961,16.0643117 C8.36758442,16.0798961 8.36758442,16.1006753 8.37277922,16.1214545 C8.37797403,16.1578182 8.38316883,16.1941818 8.38836364,16.2357403 C8.39355844,16.2876883 8.39875325,16.3448312 8.40914286,16.401974 C8.56498701,17.5702857 8.75709091,18.7438961 8.98555844,19.9227013 L5.53236364,18.1516883 L5.24155844,18.0011429 L5.26233766,18.0115325 C5.28831169,18.0323117 5.31428571,18.0582857 5.33506494,18.0894545 C5.35064935,18.1154286 5.36103896,18.1465974 5.36623377,18.1777662 C5.37662338,18.2349091 5.37142857,18.2920519 5.34545455,18.344 C5.34025974,18.3543896 5.32987013,18.3647792 5.32467532,18.3751688 C5.28311688,18.4323117 5.22597403,18.4634805 5.15844156,18.4790649 L5.15324675,18.4790649 C5.08571429,18.4894545 5.02337662,18.4737662 4.96633766,18.4375065 L4.94555844,18.422026 C4.96114286,18.4375065 4.97672727,18.448 4.99231169,18.4583896 L5.33506494,18.6349091 L9.11532468,20.5769351 C9.19844156,20.9871169 9.28664935,21.3972987 9.37496104,21.8128831 C9.38015584,21.8492468 9.39574026,21.8803117 9.42171429,21.9062857 C9.4372987,21.9322597 9.46327273,21.9582338 9.49444156,21.979013 L9.90992208,22.2281558 L10.5901299,24.8556883 L8.39875325,27.2859221 L2.59324675,25.8267013 L2.29724675,25.7487792 C2.28685714,25.7228052 2.27646753,25.6916364 2.27127273,25.6656623 C0.916051948,21.7035844 0.370805195,17.7415065 0.635636364,13.7794286 L0.635636364,13.7794286 Z M25.9864935,9.968 C25.9812987,9.968 25.9812987,9.968 25.9812987,9.96280519 L25.7372468,10.7313247 L27.7727792,15.6902857 L26.1941818,21.7865974 L26.1162597,21.796987 L21.9464935,22.4565195 L18.7373506,18.7385974 L18.6230649,18.6087273 L18.6230649,18.6035325 L18.6594286,18.4372987 L21.2973506,6.30711688 L21.2973506,6.29672727 L22.2061299,2.14254545 L27.8713766,1.21828571 L32.9031688,11.744 L33.1004675,15.2230649 L33.1212468,15.5398442 L33.2095584,17.0976623 L33.2095584,19.6836364 L29.8550649,20.5092987 L28.6815584,16.651013 L28.6348052,16.5004675 L28.6296104,16.4900779 C28.6296104,16.4848831 28.6296104,16.4795844 28.6244156,16.4744935 L28.5828571,16.3551169 L28.2920519,15.5867013 L28.2868571,15.5814026 L28.2868571,15.571013 L28.2816623,15.5658182 L25.9864935,9.968 L25.9864935,9.968 Z M33.6458182,5.89174026 L33.5782857,5.42441558 L33.5730909,5.38285714 L33.6716883,0.631480519 C38.2257662,0.911896104 42.7745455,1.58171429 47.3233247,2.63584416 L47.8374026,2.78638961 C50.6051948,3.72114286 53.3727792,4.83750649 56.1405714,6.13049351 L55.3512727,10.2846753 L55.2526753,10.8039481 L54.7074286,13.6702338 L54.6087273,14.1843117 L53.9337143,17.7362078 L53.9129351,17.8452987 L53.8038442,18.0322078 L51.4152727,22.2123636 L44.0207792,20.8051948 L46.8196364,17.243013 C46.8508052,17.2014545 46.8663896,17.1547013 46.8715844,17.1027532 L46.8975584,16.7237403 L46.9182338,16.406961 L47.2194286,11.936 C47.2246234,11.8996364 47.2194286,11.8633766 47.2038442,11.827013 C47.1883636,11.7905455 47.1726753,11.7645714 47.1467013,11.7387013 L47.1312208,11.7179221 L45.7862857,10.321039 L47.3856623,6.95096104 L47.0845714,6.87823377 L47.0793766,6.87823377 L45.5578182,10.0821818 L45.3137662,10.5754805 L46.6950649,12.0138182 L46.3627013,16.9261299 L46.3575065,16.9832727 L46.1602078,17.2377143 L43.4288831,20.7116883 L33.7288312,20.2131948 L33.7288312,17.2377143 L33.7288312,17.0818701 L33.7288312,17.0663896 L33.7236364,16.9261299 L33.4328312,11.9462857 L40.6403117,12.0448831 L40.1003636,11.5204156 L36.3979221,11.4684675 L34.2325195,10.1236364 L33.6458182,5.89174026 L33.6458182,5.89174026 Z" id="Shape" fill="#000000" fill-rule="nonzero"></path>
            <polygon id="Shape" fill="#FFFFFF" fill-rule="nonzero" points="58.3163636 18.8891429 58.0307532 19.2265974 58.5812987 25.9408831 58.7110649 25.9304935 58.8927792 25.8733506"></polygon>
            <polygon id="Shape" fill="#444444" fill-rule="nonzero" points="58.5812987 25.9408831 58.0308571 19.2265974 55.8809351 21.7659221 56.3016104 26.107013"></polygon>
            <polygon id="Shape" fill="#757575" fill-rule="nonzero" points="57.7347532 18.7748571 54.3490909 18.1362078 51.9605195 22.3162597 54.3542857 22.7732987 55.4085195 21.5218701 55.4136104 21.5166753"></polygon>
            <polygon id="Shape" fill="#757575" fill-rule="nonzero" points="61.3126234 16.246026 61.6034286 18.0478961 62.8496623 17.0561039"></polygon>
            <path d="M62.8496623,17.0561039 L63.0002078,16.9367273 C63.0107013,16.8900779 63.020987,16.8484156 63.0313766,16.8017662 L61.0685714,15.7527273 L60.6738701,15.5555325 L60.7412987,15.9293506 L61.3125195,16.2461299 L62.8496623,17.0561039 L62.8496623,17.0561039 Z" id="Shape" fill="#FFFFFF" fill-rule="nonzero"></path>
            <path d="M54.4114286,17.9908571 C54.4062338,18.0168312 54.3959481,18.0428052 54.3854545,18.0686753 L54.3490909,18.1362078 L57.7347532,18.7748571 L57.875013,18.6035325 L57.8698182,18.4841558 L54.4427013,17.835013 L54.4114286,17.9856623 L54.4114286,17.9908571 L54.4114286,17.9908571 Z" id="Shape" fill="#FFFFFF" fill-rule="nonzero"></path>
            <path d="M61.1411948,13.3848312 L61.1411948,12.766961 L57.5478442,10.3523117 L57.8698182,18.4841558 L57.875013,18.6035325 L58.3683117,18.8216104 L58.3994805,18.6814545 L58.3994805,18.670961 L58.1086753,11.3544935 L61.1411948,13.3848312 L61.1411948,13.3848312 Z" id="Shape" fill="#444444" fill-rule="nonzero"></path>
            <path d="M61.1411948,12.7668571 L61.1411948,13.3847273 L58.1086753,11.3543896 L58.3994805,18.6708571 L58.3994805,18.6813506 L58.3683117,18.8215065 C58.3579221,18.8370909 58.3475325,18.8474805 58.3371429,18.8630649 L58.3163636,18.889039 L58.8927792,25.8732468 L62.1590649,24.897039 L61.1620779,18.5775584 L61.1620779,18.5567792 L60.7414026,15.9292468 L60.673974,15.5554286 L61.0686753,15.7526234 L63.0314805,16.8016623 C63.4417662,15.1191688 63.6130909,13.3795325 63.5455584,11.5777662 C61.4061299,9.23064935 59.1473247,7.24706494 56.7639481,5.62171429 L56.6912208,6.01122078 C56.686026,6.01641558 56.686026,6.02161039 56.686026,6.02680519 L56.686026,6.032 L55.1697662,13.9976104 C55.1697662,14.0182857 55.1697662,14.0390649 55.1644675,14.0599481 C55.1592727,14.0703377 55.1592727,14.0807273 55.1540779,14.0911169 L54.4427013,17.835013 L57.8698182,18.4841558 L57.5478442,10.3523117 L61.1411948,12.7668571 L61.1411948,12.7668571 Z" id="Shape" fill="#CECECE" fill-rule="nonzero"></path>
            <path d="M18.8725195,3.11885714 L18.6596364,2.75532468 C18.6336623,2.76571429 18.6076883,2.7761039 18.5869091,2.78649351 C18.2597403,6.85236364 18.3064935,11.1623896 18.7218701,15.7215584 L18.9451429,14.683013 C18.6232727,10.6275325 18.5972987,6.77454545 18.8725195,3.11885714 L18.8725195,3.11885714 Z" id="Shape" fill="#EDEDED" fill-rule="nonzero"></path>
            <path d="M20.7678961,6.29672727 L18.8725195,3.11875325 C18.5972987,6.77444156 18.6232727,10.6274286 18.9452468,14.6829091 L20.7678961,6.29672727 L20.7678961,6.29672727 Z" id="Shape" fill="#444444" fill-rule="nonzero"></path>
            <polygon id="Shape" fill="#757575" fill-rule="nonzero" points="21.3753766 22.5915844 18.1923117 18.8995325 14.4119481 20.233974 18.187013 23.4171429"></polygon>
            <path d="M9.86316883,21.5944935 L10.1176104,21.7503377 L13.846026,20.4364675 L13.8200519,20.4104935 C13.7836883,20.3793247 13.7577143,20.3430649 13.7421299,20.3015065 C13.7369351,20.2807273 13.7317403,20.2599481 13.7265455,20.2390649 L13.7265455,20.2338701 L13.7213506,20.1455584 L9.84238961,21.5164675 C9.84758442,21.5426494 9.85787013,21.5685195 9.86316883,21.5944935 L9.86316883,21.5944935 Z" id="Shape" fill="#FFFFFF" fill-rule="nonzero"></path>
            <path d="M10.262961,21.8386494 C10.262961,21.8386494 10.262961,21.8386494 10.2681558,21.8438442 L14.4483117,24.3882597 L17.5743377,23.5781818 L13.8459221,20.4365714 L10.1175065,21.7504416 L10.2577662,21.8387532 L10.262961,21.8387532 L10.262961,21.8386494 Z" id="Shape" fill="#757575" fill-rule="nonzero"></path>
            <path d="M13.7212468,13.9976104 L13.2123636,14.1948052 L13.7212468,20.1456623 L13.7264416,20.233974 L13.7264416,20.2391688 C13.7316364,20.2599481 13.7368312,20.2807273 13.742026,20.3016104 C13.7576104,20.3430649 13.7835844,20.3794286 13.8199481,20.4105974 C13.8770909,20.4573506 13.9393247,20.4781299 14.0068571,20.473039 C14.0795844,20.4677403 14.1367273,20.4365714 14.1833766,20.3795325 C14.2301299,20.3223896 14.2509091,20.2601558 14.2457143,20.1926234 L14.2405195,20.0887273 L14.2301299,19.9641558 L13.7212468,13.9976104 L13.7212468,13.9976104 Z" id="Shape" fill="#444444" fill-rule="nonzero"></path>
            <path d="M18.0936104,18.7437922 C18.0832208,18.7022338 18.0832208,18.6606753 18.0884156,18.6244156 L18.0936104,18.5984416 L14.2302338,19.9641558 L14.2406234,20.0887273 L14.4119481,20.2340779 L18.1923117,18.8995325 L18.1455584,18.8475844 C18.1247792,18.8216104 18.1091948,18.7904416 18.0988052,18.7644675 C18.0936104,18.7592727 18.0936104,18.7488831 18.0936104,18.7437922 L18.0936104,18.7437922 Z" id="Shape" fill="#FFFFFF" fill-rule="nonzero"></path>
            <path d="M13.1812987,9.85381818 L12.662026,10.0511169 L12.4751169,5.5385974 C11.1094026,6.26036364 9.76457143,7.04966234 8.43002597,7.90649351 C8.37807792,10.5755844 8.52862338,13.2913247 8.88696104,16.0539221 C9.06877922,17.4610909 9.30244156,18.8839481 9.59314286,20.3222857 L9.59314286,20.3327792 C9.59833766,20.337974 9.59833766,20.3431688 9.59833766,20.3482597 L9.60353247,20.3587532 C9.68145455,20.7377662 9.75927273,21.1271688 9.84238961,21.5167792 L13.7213506,20.1458701 L13.2124675,14.1951169 L13.7213506,13.9978182 L14.2302338,19.9642597 L18.0936104,18.5985455 L18.7218701,15.7217662 C18.3063896,11.1625974 18.2597403,6.85257143 18.5869091,2.7867013 C16.6915325,3.48779221 14.8273247,4.31854545 12.9838961,5.27397403 L13.1812987,9.85381818 L13.1812987,9.85381818 Z" id="Shape" fill="#CECECE" fill-rule="nonzero"></path>
            <path d="M8.40914286,16.4018701 C8.39875325,16.3447273 8.39355844,16.2875844 8.38836364,16.2356364 C8.38316883,16.1941818 8.37797403,16.1577143 8.37277922,16.1213506 C8.36758442,16.1005714 8.36758442,16.0798961 8.36238961,16.0642078 L5.21558442,17.9803636 L5.24155844,18.0011429 L5.53236364,18.1516883 L8.40914286,16.4018701 L8.40914286,16.4018701 Z" id="Shape" fill="#FFFFFF" fill-rule="nonzero"></path>
            <path d="M8.98555844,19.9224935 C8.75709091,18.7436883 8.56498701,17.5700779 8.40914286,16.4017662 L5.53236364,18.1516883 L8.98555844,19.9224935 L8.98555844,19.9224935 Z" id="Shape" fill="#757575" fill-rule="nonzero"></path>
            <path d="M7.90545455,8.24405195 C5.43896104,9.85890909 3.01392208,11.7023377 0.635636364,13.7794286 C0.370805195,17.7415065 0.916051948,21.7035844 2.27137662,25.6655584 L5.77641558,23.2924675 L4.99231169,18.4580779 C4.97672727,18.4476883 4.96114286,18.4372987 4.94555844,18.4217143 L2.26088312,16.5575065 L5.28301299,14.5791169 L5.34015584,15.1503377 L3.19033766,16.5730909 L5.21558442,17.9803636 L8.36238961,16.0643117 C8.02493506,13.416 7.86909091,10.8092468 7.90545455,8.24405195 L7.90545455,8.24405195 Z" id="Shape" fill="#CECECE" fill-rule="nonzero"></path>
            <path d="M5.33506494,18.0894545 C5.31428571,18.0582857 5.28831169,18.0323117 5.26233766,18.0115325 L5.24155844,18.0011429 L5.21558442,17.9803636 L3.19044156,16.5731948 L5.34025974,15.1504416 L5.28311688,14.5792208 L2.26098701,16.5576104 L4.94566234,18.4218182 L4.96644156,18.4372987 C5.02358442,18.4736623 5.08581818,18.4892468 5.15335065,18.4788571 L5.15854545,18.4788571 C5.22607792,18.4632727 5.28322078,18.4321039 5.32477922,18.374961 C5.32997403,18.3645714 5.34036364,18.3541818 5.34555844,18.3437922 C5.37153247,18.2918442 5.37672727,18.2347013 5.36633766,18.1775584 C5.36103896,18.1465974 5.35064935,18.1154286 5.33506494,18.0894545 L5.33506494,18.0894545 Z" id="Shape" fill="#444444" fill-rule="nonzero"></path>
            <path d="M5.33506494,18.6347013 L4.99231169,18.4581818 L5.77641558,23.2925714 L2.27137662,25.6656623 C2.27657143,25.6916364 2.28696104,25.7228052 2.29735065,25.7487792 L2.59335065,25.8267013 L5.96862338,23.5366234 L6.03096104,23.4951688 C6.05693506,23.4795844 6.07251948,23.4537143 6.0881039,23.4277403 C6.0881039,23.4224416 6.0881039,23.4172468 6.0932987,23.4121558 C6.09849351,23.3861818 6.10368831,23.3655065 6.09849351,23.3395325 L6.08290909,23.246026 L5.33506494,18.6347013 L5.33506494,18.6347013 Z" id="Shape" fill="#FFFFFF" fill-rule="nonzero"></path>
            <path d="M9.37496104,21.8126753 C9.28664935,21.3971948 9.19844156,20.987013 9.11532468,20.5767273 L5.33506494,18.6347013 L6.08280519,23.2458182 L10.5901299,24.8555844 L9.90992208,22.2280519 L9.49444156,21.9789091 C9.46327273,21.9581299 9.4372987,21.9321558 9.42171429,21.9061818 C9.39574026,21.8801039 9.38015584,21.8489351 9.37496104,21.8126753 L9.37496104,21.8126753 Z" id="Shape" fill="#444444" fill-rule="nonzero"></path>
            <polygon id="Shape" fill="#757575" fill-rule="nonzero" points="8.39875325 27.2857143 10.5901299 24.8555844 5.96851948 23.5366234 2.59324675 25.8267013"></polygon>
            <path d="M6.08280519,23.2458182 L6.09838961,23.3393247 C6.10358442,23.3652987 6.09838961,23.385974 6.09319481,23.4119481 C6.088,23.4171429 6.088,23.4223377 6.088,23.4275325 C6.07241558,23.4535065 6.05683117,23.4793766 6.03085714,23.494961 L5.96851948,23.5364156 L10.590026,24.8553766 L6.08280519,23.2458182 L6.08280519,23.2458182 Z" id="Shape" fill="#BCBCBC" fill-rule="nonzero"></path>
            <path d="M33.1213506,15.5398442 L33.1005714,15.2230649 L28.582961,16.3551169 L28.6245195,16.4744935 C28.6297143,16.4796883 28.6297143,16.484987 28.6297143,16.4900779 L28.6349091,16.5004675 L28.6816623,16.651013 L33.1213506,15.5398442 L33.1213506,15.5398442 Z" id="Shape" fill="#FFFFFF" fill-rule="nonzero"></path>
            <polygon id="Shape" fill="#757575" fill-rule="nonzero" points="33.2096623 17.0976623 33.1213506 15.5398442 28.6815584 16.651013 29.8550649 20.5092987 33.2096623 19.6836364"></polygon>
            <path d="" id="Shape" fill="#000000" fill-rule="nonzero"></path>
            <polygon id="Shape" fill="#CECECE" fill-rule="nonzero" points="24.0652468 17.4972338 24.2402468 17.3972338 24.1402468 17.2222338"></polygon>
            <path d="M25.7372468,10.7314286 L25.5347532,10.2485195 L23.790026,17.1132468 L18.6596364,18.4374026 L18.6232727,18.6036364 L18.6232727,18.6088312 L18.7375584,18.7387013 L23.8368831,17.4197403 L23.9562597,17.3885714 C23.9666494,17.3833766 23.977039,17.3833766 23.9874286,17.3781818 C24.003013,17.3676883 24.0134026,17.3574026 24.0237922,17.3469091 C24.0445714,17.3262338 24.0601558,17.3054545 24.0653506,17.2794805 L24.0809351,17.2223377 L25.7372468,10.7314286 L25.7372468,10.7314286 Z" id="Shape" fill="#FFFFFF" fill-rule="nonzero"></path>
            <path d="M24.1016104,17.2585974 L24.0652468,17.2793766 C24.0600519,17.3053506 24.0444675,17.3261299 24.0236883,17.3468052 C24.0132987,17.3572987 24.0029091,17.3675844 23.9873247,17.3780779 C23.9769351,17.3832727 23.9665455,17.3832727 23.9561558,17.3884675 L23.8367792,17.4196364 L26.1163636,21.7970909 L26.1942857,21.7867013 L24.1016104,17.2585974 L24.1016104,17.2585974 Z" id="Shape" fill="#BCBCBC" fill-rule="nonzero"></path>
            <polygon id="Shape" fill="#444444" fill-rule="nonzero" points="24.0808312 17.2222338 24.1016104 17.2585974 26.1942857 21.7867013 27.7727792 15.6903896 25.7372468 10.7314286"></polygon>
            <polygon id="Shape" fill="#757575" fill-rule="nonzero" points="23.8367792 17.4196364 18.7374545 18.7385974 21.9465974 22.4565195 26.1163636 21.796987"></polygon>
            <path d="M29.2112208,7.93766234 L29.0243117,7.44955844 L24.8753247,8.26483117 L25.488,10.1238442 L25.4983896,10.1498182 L25.4931948,10.1498182 C25.4983896,10.155013 25.4983896,10.1602078 25.5035844,10.1654026 L25.5347532,10.2485195 L25.7372468,10.7314286 L25.9812987,9.96290909 C25.9812987,9.9681039 25.9812987,9.9681039 25.9864935,9.9681039 L25.9812987,9.96290909 L25.5503377,8.65953247 L29.2112208,7.93766234 L29.2112208,7.93766234 Z" id="Shape" fill="#444444" fill-rule="nonzero"></path>
            <path d="M29.0243117,7.44955844 L29.2112208,7.93766234 L25.5503377,8.65942857 L25.9812987,9.96280519 C25.9812987,9.96280519 25.9812987,9.96280519 25.9864935,9.968 L28.2816623,15.5657143 L28.2868571,15.5709091 L28.2868571,15.5812987 L28.2920519,15.5865974 L28.5828571,16.355013 L33.1004675,15.222961 L32.9031688,11.7438961 L27.8713766,1.21818182 L22.2061299,2.14244156 L21.2973506,6.29662338 L21.2973506,6.30701299 L18.6594286,18.4371948 L23.7898182,17.113039 L25.5345455,10.2483117 L25.5033766,10.1651948 C25.4981818,10.16 25.4981818,10.1548052 25.492987,10.1496104 C25.4877922,10.1392208 25.4877922,10.1288312 25.4877922,10.1236364 L24.8751169,8.26462338 L29.0243117,7.44955844 L29.0243117,7.44955844 Z" id="Shape" fill="#CECECE" fill-rule="nonzero"></path>
            <polygon id="Shape" fill="#FFFFFF" fill-rule="nonzero" points="53.8038442 18.0323117 53.9129351 17.8454026 53.9337143 17.7363117 46.9183377 16.406961 46.8976623 16.7237403"></polygon>
            <path d="M51.4152727,22.2124675 L53.8038442,18.0323117 L46.8975584,16.7237403 L46.8715844,17.1027532 C46.8663896,17.1547013 46.8508052,17.2013506 46.8196364,17.243013 L44.0207792,20.8051948 L51.4152727,22.2124675 L51.4152727,22.2124675 Z" id="Shape" fill="#757575" fill-rule="nonzero"></path>
            <path d="" id="Shape" fill="#FFFFFF" fill-rule="nonzero"></path>
            <polygon id="Shape" fill="#757575" fill-rule="nonzero" points="43.4288831 20.7117922 46.1602078 17.2379221 33.7288312 17.2379221 33.7288312 20.2132987"></polygon>
            <polygon id="Shape" fill="#444444" fill-rule="nonzero" points="41.5646753 5.92290909 41.5891753 5.92290909"></polygon>
            <path d="M40.7701818,5.48675325 L40.7701818,5.83979221 L41.5645714,5.92290909 L47.0792727,6.87314286 C47.0532987,6.83158442 47.0429091,6.78483117 47.0481039,6.73807792 L47.0635844,6.55636364 L41.0919481,5.52820779 L40.7701818,5.48675325 L40.7701818,5.48675325 Z" id="Shape" fill="#FFFFFF" fill-rule="nonzero"></path>
            <polygon id="Shape" fill="#444444" fill-rule="nonzero" points="41.5697662 5.92290909 41.5646753 5.92290909 40.7701818 5.83979221 45.3138701 10.5755844 45.5578182 10.0822857"></polygon>
            <polygon id="Shape" fill="#757575" fill-rule="nonzero" points="34.2325195 10.1238442 36.3979221 11.4686753 40.1003636 11.5206234 33.6458182 5.89174026"></polygon>
            <path d="M40.7701818,5.83979221 L40.7701818,5.48675325 L41.0921558,5.52831169 L47.0637922,6.55646753 L47.3234286,2.63594805 C42.7746494,1.58181818 38.2258701,0.912 33.6717922,0.631584416 L33.5731948,5.38296104 L33.5783896,5.42451948 L40.6457143,11.5830649 L40.6404156,12.0451948 L33.4329351,11.9465974 L33.7237403,16.9264416 L46.3628052,16.9264416 L46.6951688,12.0141299 L45.3138701,10.5757922 L40.7701818,5.83979221 L40.7701818,5.83979221 Z" id="Shape" fill="#CECECE" fill-rule="nonzero"></path>
            <polygon id="Shape" fill="#FFFFFF" fill-rule="nonzero" points="33.5781818 5.42441558 33.6458182 5.89174026 40.1003636 11.5206234 40.6403117 12.0450909 40.6456104 11.582961"></polygon>
            <polygon id="Shape" fill="#444444" fill-rule="nonzero" points="51.1868052 8.62825974 51.1868052 9.17350649 55.2527792 10.8040519 55.3513766 10.2847792"></polygon>
            <polygon id="Shape" fill="#444444" fill-rule="nonzero" points="50.9843117 12.6786494 50.9843117 13.2238961 54.6087273 14.1845195 54.7075325 13.6704416"></polygon>
            <path d="M47.1313247,11.718026 L47.1468052,11.7388052 C47.1727792,11.7646753 47.1883636,11.7906494 47.2039481,11.8271169 C47.2195325,11.8634805 47.2247273,11.8997403 47.2195325,11.9361039 L46.9183377,16.4070649 L53.9337143,17.7364156 L54.6087273,14.1845195 L50.9842078,13.2238961 L50.9842078,12.6786494 L54.7074286,13.6704416 L55.2526753,10.8041558 L51.1867013,9.17361039 L51.1867013,8.62836364 L55.3512727,10.2848831 L56.1405714,6.1307013 C53.3727792,4.83771429 50.6051948,3.72135065 47.8374026,2.7865974 L47.4531948,6.97194805 L47.1313247,11.718026 L47.1313247,11.718026 Z" id="Shape" fill="#CECECE" fill-rule="nonzero"></path>
            <polygon id="Shape" fill="#757575" fill-rule="nonzero" points="47.0793766 6.87833766 47.0793766 6.87314286 41.5646753 5.92290909 41.5697662 5.92290909 45.5578182 10.0822857"></polygon>
            <path d="M47.8375065,2.78649351 L47.3234286,2.63594805 L47.0637922,6.55646753 L47.0483117,6.73818182 C47.0431169,6.78493506 47.0535065,6.83168831 47.0794805,6.87324675 L47.0794805,6.87844156 L47.0846753,6.87844156 L47.3857662,6.95116883 L45.7863896,10.3212468 L47.1313247,11.7181299 L47.4532987,6.97194805 L47.8375065,2.78649351 L47.8375065,2.78649351 Z" id="Shape" fill="#444444" fill-rule="nonzero"></path>
            <path d="" id="Shape" stroke="#4D4D4D" stroke-width="0.05" stroke-linecap="square"></path>
            <path d="M35.5878442,1.29620779 C35.1152208,1.25464935 34.6478961,1.21828571 34.1805714,1.18722078 L34.0974545,5.19075325 L35.0166234,5.99044156 L37.6493506,1.5038961 C36.9587532,1.42597403 36.2732468,1.35324675 35.5878442,1.29620779 L35.5878442,1.29620779 Z" id="Shape" fill="#B2B2B2" fill-rule="nonzero"></path>
            <path d="M31.0390649,9.05412987 L28.1778701,13.9404675 L28.7646753,15.3684156 C28.7698701,15.3788052 28.7698701,15.3891948 28.7750649,15.3995844 L28.9049351,15.7371429 L29.3723636,15.6228571 L32.0206753,11.1051429 L31.0390649,9.05412987 L31.0390649,9.05412987 Z" id="Shape" fill="#B2B2B2" fill-rule="nonzero"></path>
            <path d="M39.7628052,10.129039 L40.7961558,11.0273247 C40.873974,11.0532987 40.9467013,11.0948571 41.009039,11.1622857 C41.0557922,11.209039 41.0921558,11.2557922 41.1181299,11.3076364 C41.2012468,11.3959481 41.2478961,11.505039 41.2583896,11.6348052 C41.2687792,11.7645714 41.2376104,11.8788571 41.1596883,11.9775584 L41.1596883,12.0501818 C41.1544935,12.1904416 41.1025455,12.3151169 41.0039481,12.4189091 C40.9000519,12.5176104 40.7754805,12.5694545 40.630026,12.5642597 L38.3504416,12.5330909 L36.0760519,16.4068571 L40.4431169,16.4068571 L44.1402597,10.1028571 L41.4297143,7.27802597 L39.7628052,10.129039 L39.7628052,10.129039 Z" id="Shape" fill="#B2B2B2" fill-rule="nonzero"></path>
            <path d="M46.7780779,3.04612987 C45.9265455,2.85402597 45.0749091,2.67220779 44.2284675,2.50607792 L42.6136104,5.26337662 L46.5755844,5.94888312 L46.5808831,5.94888312 L46.5808831,5.9332987 L46.7780779,3.04612987 L46.7780779,3.04612987 Z" id="Shape" fill="#B2B2B2" fill-rule="nonzero"></path>
            <path d="M2.7438961,12.6786494 C2.20903896,13.1148052 1.67418182,13.5666494 1.13942857,14.0287792 C1.11345455,14.5220779 1.09787013,15.0101818 1.09267532,15.4983896 L2.7438961,12.6786494 L2.7438961,12.6786494 Z" id="Shape" fill="#B2B2B2" fill-rule="nonzero"></path>
            <path d="M21.8116364,6.37464935 C21.8064416,6.39023377 21.8064416,6.40062338 21.8064416,6.41620779 L20.4667013,12.5643636 L26.7031688,1.93485714 L22.6372987,2.59948052 L21.8116364,6.37464935 L21.8116364,6.37464935 Z" id="Shape" fill="#B2B2B2" fill-rule="nonzero"></path>
            <path d="M17.6521558,18.2036364 L18.1974026,15.6903896 C18.0052987,13.5977143 17.8962078,11.5517922 17.865039,9.56301299 L14.3702857,15.5241558 L14.6870649,19.2525714 L17.6521558,18.2036364 L17.6521558,18.2036364 Z" id="Shape" fill="#B2B2B2" fill-rule="nonzero"></path>
            <path d="" id="Shape" fill="#B2B2B2" fill-rule="nonzero"></path>
            <polygon id="Shape" fill="#B2B2B2" fill-rule="nonzero" points="13.0046753 17.8505974 11.529974 20.3638442 13.1709091 19.7875325"></polygon>
            <path d="M2.17267532,23.5833766 C2.28696104,24.0040519 2.41153247,24.4246234 2.5465974,24.8503896 L5.21049351,23.0432208 L4.62368831,19.3979221 L2.17267532,23.5833766 L2.17267532,23.5833766 Z" id="Shape" fill="#B2B2B2" fill-rule="nonzero"></path>
            <path d="M6.13994805,16.8120519 L7.80675325,15.7942857 C7.74441558,15.2802078 7.68737662,14.7661299 7.64062338,14.2519481 L6.13994805,16.8120519 L6.13994805,16.8120519 Z" id="Shape" fill="#B2B2B2" fill-rule="nonzero"></path>
            <polygon id="Shape" fill="#B2B2B2" fill-rule="nonzero" points="43.7611429 16.406961 45.8797922 16.406961 46.1498182 12.3307013"></polygon>
            <path d="M58.9655065,10.6742857 L60.0404156,8.84124675 C59.0901818,7.99480519 58.1138701,7.2158961 57.1220779,6.50451948 L55.6889351,14.0443636 C55.6836364,14.0911169 55.6784416,14.1430649 55.6681558,14.1897143 C55.662961,14.1949091 55.662961,14.1949091 55.662961,14.2002078 C55.6577662,14.2105974 55.6577662,14.2208831 55.6524675,14.2365714 L55.0657662,17.3262338 L57.1636364,13.7483636 L57.0285714,10.3730909 C57.0233766,10.238026 57.0597403,10.1186494 57.1479481,10.0199481 C57.2362597,9.91605195 57.3452468,9.85381818 57.475013,9.83823377 C57.6048831,9.81745455 57.7294545,9.84342857 57.8385455,9.92135065 L58.9655065,10.6742857 L58.9655065,10.6742857 Z" id="Shape" fill="#B2B2B2" fill-rule="nonzero"></path>
            <path d="" id="Shape" fill="#B2B2B2" fill-rule="nonzero"></path>
            <path d="M61.7799481,10.4820779 L60.9024416,11.9776623 L61.4321039,12.3358961 C61.5514805,12.4138182 61.6243117,12.5229091 61.6502857,12.6630649 C61.6762597,12.8032208 61.6502857,12.9381818 61.5723636,13.0576623 L61.2815584,13.4886234 C61.2036364,13.608 61.0945455,13.6808312 60.9544935,13.7068052 C60.8142338,13.7327792 60.6792727,13.7068052 60.5597922,13.6288831 L60.1132468,13.3224935 L58.7993766,15.5658182 C58.8357403,17.8505974 58.8513247,19.0034286 58.8461299,19.0189091 L59.3549091,25.1931429 L61.5722597,24.5285195 L60.648,18.6555844 C60.6428052,18.6348052 60.6428052,18.614026 60.6428052,18.5932468 L60.2273247,16.0123636 C60.190961,15.8046753 60.1754805,15.6073766 60.1806753,15.4204675 C60.1858701,15.3321558 60.2066494,15.2594286 60.243013,15.2074805 C60.268987,15.166026 60.3209351,15.1244675 60.3935584,15.0881039 C60.4558961,15.0517403 60.5234286,15.0362597 60.5908571,15.0414545 C60.6272208,15.0414545 60.6842597,15.0518442 60.7621818,15.0726234 C60.865974,15.0934026 61.0477922,15.166026 61.3126234,15.2907013 L61.4528831,15.3686234 C61.4840519,15.379013 61.5152208,15.3945974 61.5462857,15.4205714 L62.6731429,16.022961 C62.9535584,14.6520519 63.073039,13.2396883 63.0313766,11.7908571 C62.616,11.3389091 62.2006234,10.9026494 61.7799481,10.4820779 L61.7799481,10.4820779 Z" id="Shape" fill="#B2B2B2" fill-rule="nonzero"></path>
            <path d="M47.8011429,9.51625974 L47.6608831,11.5777662 L47.4686753,15.9863896 L53.5183377,17.134026 L54.0063377,14.5584416 L50.7971948,13.6809351 C50.657039,13.6444675 50.5531429,13.5666494 50.4857143,13.441974 C50.412987,13.3225974 50.3974026,13.1876364 50.4337662,13.0473766 L50.4441558,12.5435844 C50.4806234,12.4034286 50.5584416,12.2995325 50.6831169,12.2268052 C50.8024935,12.1541818 50.9374545,12.1384935 51.0777143,12.174961 L54.3024416,13.0264935 L54.6606753,11.1311169 L50.9894026,9.65641558 C50.921974,9.63044156 50.8543377,9.52654545 50.7765195,9.34483117 C50.6985974,9.16820779 50.6778182,9.04883117 50.7037922,8.9812987 L50.7297662,8.49838961 C50.7817143,8.36851948 50.8751169,8.26992208 51.004987,8.21277922 C51.0724156,8.18680519 51.1711169,8.17122078 51.2905974,8.16602597 C51.409974,8.16602597 51.5034805,8.18161039 51.5709091,8.20758442 L54.9617662,9.5681039 L55.5537662,6.43168831 C53.969974,5.69953247 52.380987,5.02451948 50.792,4.41174026 L47.8011429,9.51625974 L47.8011429,9.51625974 Z" id="Shape" fill="#B2B2B2" fill-rule="nonzero"></path>
            <path d="M17.9793247,4.0587013 C17.9845195,3.89257143 17.9949091,3.72633766 18.0104935,3.56020779 C16.4942338,4.15220779 14.9987532,4.82722078 13.5187532,5.58535065 L13.7005714,9.83293506 C13.7057662,9.97319481 13.6642078,10.0977662 13.5656104,10.2068571 C13.4669091,10.3107532 13.3423377,10.3677922 13.2020779,10.3730909 L12.6828052,10.5184416 C12.5374545,10.5236364 12.4127792,10.4820779 12.3140779,10.3833766 C12.2050909,10.2847792 12.1479481,10.1652987 12.1427532,10.0251429 L12.0077922,6.79522078 L9.02192208,11.8945455 C9.09464935,13.2446753 9.21922078,14.6103896 9.40103896,15.9863896 C9.48935065,16.702961 9.59833766,17.4248312 9.71781818,18.1465974 L17.9793247,4.0587013 L17.9793247,4.0587013 Z" id="Shape" fill="#B2B2B2" fill-rule="nonzero"></path>
            <path d="M25.6904935,21.6776104 C25.3529351,22.4305455 25.3841039,23.1628052 25.7891948,23.8741818 C26.1941818,24.5856623 26.8537143,25.0737662 27.7623896,25.3334026 C28.6815584,25.5877403 29.585039,25.5462857 30.473039,25.1983377 C31.3609351,24.8503896 31.9737143,24.3051429 32.3164675,23.5574026 C32.6592208,22.8044675 32.6280519,22.0723117 32.2230649,21.3608312 C31.8180779,20.6494545 31.1585455,20.1613506 30.2446753,19.9017143 C29.3308052,19.6420779 28.4324156,19.6835325 27.5444156,20.0314805 C26.6564156,20.3794286 26.0384416,20.9246753 25.6904935,21.6776104 L25.6904935,21.6776104 Z" id="Shape" fill="#CECECE" fill-rule="nonzero"></path>
            <path d="M25.7891948,23.8741818 C26.1941818,24.5856623 26.8537143,25.0737662 27.7623896,25.3334026 C28.6815584,25.5877403 29.585039,25.5462857 30.473039,25.1983377 C31.3609351,24.8503896 31.9737143,24.3051429 32.3164675,23.5574026 C32.6592208,22.8044675 32.6280519,22.0723117 32.2230649,21.3608312 C31.8180779,20.6494545 31.1585455,20.1613506 30.2446753,19.9017143 C29.3308052,19.6420779 28.4324156,19.6835325 27.5444156,20.0314805 C26.6565195,20.3794286 26.0385455,20.9246753 25.6905974,21.6776104 C25.353039,22.4305455 25.3842078,23.1628052 25.7891948,23.8741818 L25.7891948,23.8741818 Z" id="Shape" stroke="#000000" stroke-width="4.998" stroke-linecap="round" stroke-linejoin="round"></path>
            <path d="M26.7965714,22.0825974 C26.5473247,22.6382338 26.5732987,23.1782857 26.8692987,23.7027532 C27.1652987,24.2272208 27.6534026,24.5907532 28.3233247,24.7828571 C29.0035325,24.9697662 29.6682597,24.9334026 30.3224935,24.678961 C30.9767273,24.4245195 31.4285714,24.0246234 31.683013,23.468987 C31.9374545,22.9133506 31.9167792,22.3732987 31.6155844,21.8488312 C31.3195844,21.3243636 30.8314805,20.9661299 30.1564675,20.7739221 C29.4813506,20.5817143 28.8167273,20.6128831 28.1624935,20.8673247 C27.5082597,21.1217662 27.051013,21.5270649 26.7965714,22.0825974 L26.7965714,22.0825974 Z" id="Shape" fill="#A1A1A1" fill-rule="nonzero"></path>
            <path d="M28.8944416,20.9662338 C28.961974,21.0856104 29.0657662,21.1634286 29.2164156,21.2102857 C29.366961,21.2517403 29.5176104,21.2414545 29.662961,21.1843117 C29.8135065,21.1271688 29.9122078,21.038961 29.9693506,20.9142857 C30.0264935,20.7949091 30.0212987,20.6754286 29.9537662,20.5559481 C29.8862338,20.4365714 29.7772468,20.3587532 29.6265974,20.3118961 C29.4760519,20.2704416 29.3305974,20.2755325 29.1852468,20.3326753 C29.0345974,20.3898182 28.936,20.4832208 28.8788571,20.6077922 C28.8217143,20.7272727 28.8269091,20.8467532 28.8944416,20.9662338 L28.8944416,20.9662338 Z" id="Shape" fill="#CECECE" fill-rule="nonzero"></path>
            <path d="M37.3637403,24.2999481 C35.7487792,23.8585974 34.2065455,23.7650909 32.737039,24.0195325 C33.8223377,24.8192208 34.8972468,25.7435844 35.9617662,26.7924156 L37.3637403,24.2999481 L37.3637403,24.2999481 Z" id="Shape" fill="#979797" fill-rule="nonzero"></path>
            <path d="M34.0455065,30.0015584 C35.0166234,29.2122597 35.6552727,28.1425455 35.9616623,26.7924156 C34.8971429,25.7434805 33.8222338,24.8192208 32.7369351,24.0195325 C29.2889351,21.4803117 25.7423377,20.1873247 22.0918442,20.1457662 C22.4761558,23.9832727 25.0569351,27.6856104 29.8341818,31.2581818 C31.5531429,31.3049351 32.9551169,30.8895584 34.0455065,30.0015584 L34.0455065,30.0015584 Z" id="Shape" fill="#FFFFFF" fill-rule="nonzero"></path>
            <path d="M35.7955325,26.7664416 L36.8444675,24.9023377 C35.6396883,24.5751688 34.4870649,24.5076364 33.3913766,24.6945455 C34.1962597,25.2917403 35.001039,25.9824416 35.7955325,26.7664416 L35.7955325,26.7664416 Z" id="Shape" fill="#7D7D7D" fill-rule="nonzero"></path>
            <path d="M21.7960519,19.8757403 L21.8376104,20.1717403 C22.2166234,24.0714805 24.8285714,27.8362597 29.6786494,31.465974 L29.7460779,31.5178182 L29.8291948,31.5178182 C31.6154805,31.5697662 33.0747013,31.1336104 34.2118442,30.2040519 C35.214026,29.3887792 35.8787532,28.2828052 36.2058182,26.891013 L37.7584416,24.1337143 L37.4312727,24.0505974 C35.8164156,23.6092468 34.2740779,23.5106494 32.7993766,23.7443117 C29.3307013,21.2101818 25.7632208,19.9224935 22.0971429,19.886026 L21.7960519,19.8757403 L21.7960519,19.8757403 Z M33.2511169,24.2117403 C34.4402078,24.0663896 35.6812468,24.1494026 36.9742338,24.4661818 L35.8473766,26.4653506 C34.9854545,25.6292987 34.1183377,24.8815584 33.2511169,24.2117403 L33.2511169,24.2117403 Z M32.5864935,24.2324156 L32.6748052,24.2948571 C32.6748052,24.2948571 33.059013,24.5908571 33.8327273,25.1775584 C34.6790649,25.8473766 35.3074286,26.3718442 35.7073247,26.7613506 C35.4113247,28.0387532 34.8038442,29.0513247 33.8846753,29.7990649 C32.8513247,30.6299221 31.5323636,31.0297143 29.9227013,31.0038442 C25.3842078,27.5922078 22.870961,24.0611948 22.3880519,20.4105974 C25.8775065,20.5195844 29.2787532,21.796987 32.5864935,24.2324156 L32.5864935,24.2324156 Z" id="Shape" fill="#000000" fill-rule="nonzero"></path>
            <path d="M33.9366234,29.3888831 C35.5410909,29.3732987 36.7043117,29.1656104 37.4156883,28.7657143 C35.915013,27.265039 33.734026,26.2472727 30.8728312,25.702026 C31.1324675,26.5171948 32.1555325,27.7427532 33.9366234,29.3888831 L33.9366234,29.3888831 Z" id="Shape" fill="#979797" fill-rule="nonzero"></path>
            <path d="M33.6664935,29.3629091 C35.0218182,29.3629091 36.0136104,29.2070649 36.6367792,28.8955844 C35.457974,27.7011948 33.6716883,26.8756364 31.2883117,26.4237922 C31.4648312,27.0729351 32.2593247,28.049039 33.6664935,29.3629091 L33.6664935,29.3629091 Z" id="Shape" fill="#7D7D7D" fill-rule="nonzero"></path>
            <path d="M30.5094026,25.3696623 L30.7067013,25.8058182 C31.1064935,26.7041039 32.0983896,27.8932987 33.6768831,29.3628052 L33.9417143,29.6484156 C35.6033247,29.6328312 36.8029091,29.4147532 37.5454545,28.9940779 L37.857039,28.8278442 L37.6025974,28.5837922 C36.0707532,27.0467532 33.8483117,26.003013 30.9248831,25.4473766 L30.5094026,25.3696623 L30.5094026,25.3696623 Z M33.9366234,29.1292468 L33.8898701,29.1292468 C32.4775065,27.8153766 31.5739221,26.7821299 31.1845195,26.0291948 C33.6458182,26.5431688 35.5722597,27.4311688 36.9639481,28.6930909 C36.2680519,28.9682078 35.2606753,29.1135584 33.9366234,29.1292468 L33.9366234,29.1292468 Z" id="Shape" fill="#000000" fill-rule="nonzero"></path>
            <path d="M27.8039481,31.6217143 C28.3907532,31.1698701 28.9308052,30.4117403 29.4189091,29.3369351 L26.350026,26.7925195 C26.1423377,28.4645195 26.6252468,30.0742857 27.8039481,31.6217143 L27.8039481,31.6217143 Z" id="Shape" fill="#979797" fill-rule="nonzero"></path>
            <path d="M29.4760519,29.2018701 L26.9731948,27.2598442 C26.8433247,28.6878961 27.264,30.0171429 28.2402078,31.2478961 C28.6971429,30.8272208 29.1073247,30.147013 29.4760519,29.2018701 L29.4760519,29.2018701 Z" id="Shape" fill="#7D7D7D" fill-rule="nonzero"></path>
            <path d="M26.1631169,26.4341818 L26.1007792,26.7456623 C25.8775065,28.4956883 26.376,30.1728831 27.5963636,31.7826494 L27.7572987,31.9955325 L27.964987,31.8292987 C28.582961,31.3567792 29.1593766,30.5363117 29.6942338,29.368 L26.1631169,26.4341818 L26.1631169,26.4341818 Z M29.1488831,29.310961 C28.748987,30.1677922 28.3128312,30.8116364 27.8507013,31.2427013 C26.9160519,29.9341299 26.4901818,28.5788052 26.5732987,27.1819221 L29.1488831,29.310961 L29.1488831,29.310961 Z" id="Shape" fill="#000000" fill-rule="nonzero"></path>
        </g>
    </g>
</svg>